<svg version="1.1" xmlns="http://www.w3.org/2000/svg" viewBox="0 0 3081.234023988927 1057.2904899609334" width="9243.702071966782" height="3171.8714698828003">
  <!-- svg-source:excalidraw -->
  
  <defs>
    <style class="style-fonts">
      @font-face {
        font-family: "Virgil";
        src: url("https://excalidraw.com/Virgil.woff2");
      }
      @font-face {
        font-family: "Cascadia";
        src: url("https://excalidraw.com/Cascadia.woff2");
      }
    </style>
    
  </defs>
  <rect x="0" y="0" width="3081.234023988927" height="1057.2904899609334" fill="#ffffff"></rect><g transform="translate(139.33727378197977 130.7974805932244) rotate(0 239.93992614746094 22.5)"><text x="0" y="0" font-family="Virgil, Segoe UI Emoji" font-size="36px" fill="#1e1e1e" text-anchor="start" style="white-space: pre;" direction="ltr" dominant-baseline="text-before-edge">Structured product pricing?</text></g><g transform="translate(622.8783289387218 153.36361416829095) rotate(0 9 22.5)"><text x="0" y="0" font-family="Virgil, Segoe UI Emoji" font-size="36px" fill="#1e1e1e" text-anchor="start" style="white-space: pre;" direction="ltr" dominant-baseline="text-before-edge"></text></g><g stroke-linecap="round"><g transform="translate(17.143065004129994 72.43140896753363) rotate(0 444.20485253036566 1.6778545365718287)"><path d="M0.21 -0.86 C148.41 -0.18, 741.45 2.37, 889.55 3.13 M-1.14 1.31 C146.92 2.19, 740.71 3.62, 888.89 4.21" stroke="#1e1e1e" stroke-width="1" fill="none"></path></g></g><mask></mask><g transform="translate(158.36867066634545 10) rotate(0 77.41797637939453 22.5)"><text x="0" y="0" font-family="Virgil, Segoe UI Emoji" font-size="36px" fill="#1e1e1e" text-anchor="start" style="white-space: pre;" direction="ltr" dominant-baseline="text-before-edge">Plan No.1</text></g><g stroke-linecap="round" transform="translate(10 302.8951993658232) rotate(0 351.403098736845 372.19764529755514)"><path d="M32 0 M32 0 C214.04 -0.51, 396.66 0.99, 670.81 0 M32 0 C231.59 -2.31, 431.89 -2.73, 670.81 0 M670.81 0 C694.03 -1.04, 702.39 10.78, 702.81 32 M670.81 0 C693.29 -1.27, 703.68 9.49, 702.81 32 M702.81 32 C704.23 183.56, 704.32 335.08, 702.81 712.4 M702.81 32 C701.05 223.92, 701.02 415.8, 702.81 712.4 M702.81 712.4 C701.92 733.54, 691.05 742.8, 670.81 744.4 M702.81 712.4 C704.95 733.47, 692.84 742.38, 670.81 744.4 M670.81 744.4 C432.69 742.76, 196.13 742.53, 32 744.4 M670.81 744.4 C440.38 744.41, 210.9 744.44, 32 744.4 M32 744.4 C9.64 745.74, -0.68 733.68, 0 712.4 M32 744.4 C12.12 742.54, -0.37 735.28, 0 712.4 M0 712.4 C-1.89 514.35, -1.85 315.9, 0 32 M0 712.4 C2.48 565.96, 2.66 418.61, 0 32 M0 32 C-1.72 10.92, 10.95 -1.56, 32 0 M0 32 C0.11 9.06, 9.54 -0.44, 32 0" stroke="#1e1e1e" stroke-width="1" fill="none"></path></g><g stroke-linecap="round"><g transform="translate(717.5248171115898 486.55176161978767) rotate(0 204.94485975022621 7.906564747194977)"><path d="M0.77 -0.75 C69 1.95, 342.12 12.52, 410.18 15.18 M-0.29 1.47 C67.8 4.44, 341.61 14.08, 409.72 16.56" stroke="#1e1e1e" stroke-width="1" fill="none"></path></g><g transform="translate(717.5248171115898 486.55176161978767) rotate(0 204.94485975022621 7.906564747194977)"><path d="M379.93 27.34 C391.13 22.08, 401.54 18.73, 409.75 17.53 M381.82 25.67 C388.43 23.76, 394.41 22.6, 408.84 16.02" stroke="#1e1e1e" stroke-width="1" fill="none"></path></g><g transform="translate(717.5248171115898 486.55176161978767) rotate(0 204.94485975022621 7.906564747194977)"><path d="M380.66 6.83 C391.42 9.03, 401.56 13.13, 409.75 17.53 M382.56 5.16 C389.01 7.92, 394.83 11.44, 408.84 16.02" stroke="#1e1e1e" stroke-width="1" fill="none"></path></g></g><mask></mask><g transform="translate(1118.927514151076 438.834567433785) rotate(0 -0.25359589944309846 0)" stroke="none"><path fill="#1e1e1e" d="M 2.12,-0.66 Q 2.12,-0.66 2.15,-0.13 2.18,0.40 1.96,0.88 1.74,1.36 1.32,1.69 0.91,2.02 0.38,2.12 -0.13,2.21 -0.64,2.05 -1.14,1.90 -1.52,1.52 -1.90,1.14 -2.05,0.64 -2.21,0.13 -2.12,-0.38 -2.02,-0.91 -1.69,-1.32 -1.36,-1.74 -0.88,-1.96 -0.39,-2.18 0.13,-2.15 0.66,-2.11 1.11,-1.84 1.57,-1.56 1.84,-1.11 L 2.12,-0.66 Z"></path></g><g transform="translate(920.0583108561871 406.06503151495843) rotate(0 48.22198486328125 22.5)"><text x="0" y="0" font-family="Virgil, Segoe UI Emoji" font-size="36px" fill="#1e1e1e" text-anchor="start" style="white-space: pre;" direction="ltr" dominant-baseline="text-before-edge">Data</text></g><g stroke-linecap="round"><g transform="translate(1120.2686845100582 809.2177803894865) rotate(0 -201.46301141978552 0.9429748864688463)"><path d="M-1.08 -1.11 C-68.36 -0.81, -335.64 1.1, -402.75 1.71 M0.56 0.93 C-66.93 1.4, -335.92 3.08, -403.48 2.99" stroke="#1e1e1e" stroke-width="1" fill="none"></path></g><g transform="translate(1120.2686845100582 809.2177803894865) rotate(0 -201.46301141978552 0.9429748864688463)"><path d="M-377.17 -6.69 C-386.83 -4.67, -396.12 -0.3, -401.83 1.66 M-374.53 -7.97 C-385.92 -4.06, -396.08 -0.51, -403.32 2.95" stroke="#1e1e1e" stroke-width="1" fill="none"></path></g><g transform="translate(1120.2686845100582 809.2177803894865) rotate(0 -201.46301141978552 0.9429748864688463)"><path d="M-377.11 13.83 C-386.77 8.07, -396.09 4.66, -401.83 1.66 M-374.47 12.55 C-386.08 9.03, -396.26 5.16, -403.32 2.95" stroke="#1e1e1e" stroke-width="1" fill="none"></path></g></g><mask></mask><g transform="translate(908.5446845782174 765.5884373913309) rotate(0 42.46197509765625 22.5)"><text x="0" y="0" font-family="Virgil, Segoe UI Emoji" font-size="36px" fill="#1e1e1e" text-anchor="start" style="white-space: pre;" direction="ltr" dominant-baseline="text-before-edge">Price</text></g><g stroke-linecap="round" transform="translate(1127.7857062114397 334.86732981334563) rotate(0 371.00253914393556 349.61514065142126)"><path d="M32 0 M32 0 C217.27 -1.21, 403.11 -1.36, 710.01 0 M32 0 C258.98 2.4, 485.99 2.89, 710.01 0 M710.01 0 C732.43 0.72, 742.17 10.22, 742.01 32 M710.01 0 C733.04 0.26, 740.37 12.19, 742.01 32 M742.01 32 C742.45 165.4, 741.81 297.76, 742.01 667.23 M742.01 32 C742.13 201, 742.86 369.2, 742.01 667.23 M742.01 667.23 C741.4 689.72, 729.94 699.28, 710.01 699.23 M742.01 667.23 C741.43 690.34, 732.5 699.46, 710.01 699.23 M710.01 699.23 C556.43 701.39, 403.51 701.61, 32 699.23 M710.01 699.23 C450.79 699.03, 191.13 699.63, 32 699.23 M32 699.23 C10.34 699.2, -1.98 690.37, 0 667.23 M32 699.23 C10.25 699.24, 0.68 690.12, 0 667.23 M0 667.23 C-0.94 454.66, -1.32 244.1, 0 32 M0 667.23 C0.85 471.07, 1.19 274.88, 0 32 M0 32 C-0.91 11.44, 11.98 1.11, 32 0 M0 32 C-0.29 9.87, 9.96 -1.57, 32 0" stroke="#1e1e1e" stroke-width="1" fill="none"></path></g><g transform="translate(1348.5209435773675 249.78354645741638) rotate(0 109.36795806884766 22.5)"><text x="0" y="0" font-family="Virgil, Segoe UI Emoji" font-size="36px" fill="#1e1e1e" text-anchor="start" style="white-space: pre;" direction="ltr" dominant-baseline="text-before-edge">Java Server</text></g><g transform="translate(178.9402896016693 226.4620729553872) rotate(0 132.51596069335938 22.5)"><text x="0" y="0" font-family="Virgil, Segoe UI Emoji" font-size="36px" fill="#1e1e1e" text-anchor="start" style="white-space: pre;" direction="ltr" dominant-baseline="text-before-edge">Vue.js frontend</text></g><g stroke-linecap="round"><g transform="translate(1877.8207383514102 517.5338585194686) rotate(0 66.32844390621062 23.648823299716696)"><path d="M-0.79 -0.82 C21.32 7.08, 110.86 40.03, 133.45 48.12 M1 1.37 C22.87 8.86, 110.19 39.04, 132.45 46.4" stroke="#1e1e1e" stroke-width="1" fill="none"></path></g><g transform="translate(1877.8207383514102 517.5338585194686) rotate(0 66.32844390621062 23.648823299716696)"><path d="M101.09 46.9 C114.72 48.95, 124.99 45.35, 133.8 44.41 M103.1 46.87 C110.61 47.32, 119.96 46.19, 133.32 46.53" stroke="#1e1e1e" stroke-width="1" fill="none"></path></g><g transform="translate(1877.8207383514102 517.5338585194686) rotate(0 66.32844390621062 23.648823299716696)"><path d="M107.68 27.46 C119.02 36.59, 126.88 40.11, 133.8 44.41 M109.69 27.43 C115.47 33.42, 122.96 37.81, 133.32 46.53" stroke="#1e1e1e" stroke-width="1" fill="none"></path></g></g><mask></mask><g stroke-linecap="round"><g transform="translate(2011.0431423498628 658.4666376007233) rotate(0 -69.75947833866303 29.639591640102026)"><path d="M0 -0.49 C-23.11 9.62, -115.23 49.44, -138.28 59.67 M-1.46 -1.79 C-24.81 8.59, -116.53 50.94, -139.52 61.07" stroke="#1e1e1e" stroke-width="1" fill="none"></path></g><g transform="translate(2011.0431423498628 658.4666376007233) rotate(0 -69.75947833866303 29.639591640102026)"><path d="M-118.88 39.17 C-125.8 46.09, -130.95 56, -141.17 61.82 M-117.58 40.79 C-124.56 47.26, -133.09 53.61, -138.78 61.53" stroke="#1e1e1e" stroke-width="1" fill="none"></path></g><g transform="translate(2011.0431423498628 658.4666376007233) rotate(0 -69.75947833866303 29.639591640102026)"><path d="M-110.42 57.87 C-119.99 58.58, -127.95 62.29, -141.17 61.82 M-109.12 59.49 C-118.99 59.64, -130.36 59.73, -138.78 61.53" stroke="#1e1e1e" stroke-width="1" fill="none"></path></g></g><mask></mask><g stroke-linecap="round" transform="translate(2016.7178558361836 534.5609798768412) rotate(0 169.13079411676267 68.01551177031149)"><path d="M32 0 M32 0 C87.35 -0.96, 142.97 -2.09, 306.26 0 M32 0 C127.15 -0.4, 223.41 -1.74, 306.26 0 M306.26 0 C326.89 1.83, 337.87 8.78, 338.26 32 M306.26 0 C329.68 0.91, 336.57 8.82, 338.26 32 M338.26 32 C337.73 59.26, 339.75 85.3, 338.26 104.03 M338.26 32 C337.76 53.72, 337.77 77, 338.26 104.03 M338.26 104.03 C339.81 126.2, 328.23 135.97, 306.26 136.03 M338.26 104.03 C339.12 127.12, 329.76 136.13, 306.26 136.03 M306.26 136.03 C245.33 136.26, 184.2 136.59, 32 136.03 M306.26 136.03 C223.09 133.91, 141.21 133.85, 32 136.03 M32 136.03 C10.24 136.92, -1 125.51, 0 104.03 M32 136.03 C9.19 137.13, 2.14 125.41, 0 104.03 M0 104.03 C-1.88 77.13, -0.1 51.42, 0 32 M0 104.03 C-0.31 75.98, 0.84 47.16, 0 32 M0 32 C0.72 9.09, 12.44 1.83, 32 0 M0 32 C-0.27 10.2, 11.5 -1.23, 32 0" stroke="#1e1e1e" stroke-width="1" fill="none"></path></g><g transform="translate(2109.2401159688125 575.8436982852515) rotate(0 34.415992736816406 22.5)"><text x="0" y="0" font-family="Virgil, Segoe UI Emoji" font-size="36px" fill="#1e1e1e" text-anchor="start" style="white-space: pre;" direction="ltr" dominant-baseline="text-before-edge">SQL</text></g><g transform="translate(145.09345918148733 538.7059232037086) rotate(0 252.59388732910156 180)"><text x="0" y="0" font-family="Virgil, Segoe UI Emoji" font-size="36px" fill="#1e1e1e" text-anchor="start" style="white-space: pre;" direction="ltr" dominant-baseline="text-before-edge">Login / Signup</text><text x="0" y="45" font-family="Virgil, Segoe UI Emoji" font-size="36px" fill="#1e1e1e" text-anchor="start" style="white-space: pre;" direction="ltr" dominant-baseline="text-before-edge">Data Input</text><text x="0" y="90" font-family="Virgil, Segoe UI Emoji" font-size="36px" fill="#1e1e1e" text-anchor="start" style="white-space: pre;" direction="ltr" dominant-baseline="text-before-edge">Request Data from API</text><text x="0" y="135" font-family="Virgil, Segoe UI Emoji" font-size="36px" fill="#1e1e1e" text-anchor="start" style="white-space: pre;" direction="ltr" dominant-baseline="text-before-edge">Save Pricing Projects</text><text x="0" y="180" font-family="Virgil, Segoe UI Emoji" font-size="36px" fill="#1e1e1e" text-anchor="start" style="white-space: pre;" direction="ltr" dominant-baseline="text-before-edge">Display saved pricing project</text><text x="0" y="225" font-family="Virgil, Segoe UI Emoji" font-size="36px" fill="#1e1e1e" text-anchor="start" style="white-space: pre;" direction="ltr" dominant-baseline="text-before-edge"></text><text x="0" y="270" font-family="Virgil, Segoe UI Emoji" font-size="36px" fill="#1e1e1e" text-anchor="start" style="white-space: pre;" direction="ltr" dominant-baseline="text-before-edge"></text><text x="0" y="315" font-family="Virgil, Segoe UI Emoji" font-size="36px" fill="#1e1e1e" text-anchor="start" style="white-space: pre;" direction="ltr" dominant-baseline="text-before-edge"></text></g><g stroke-linecap="round"><g transform="translate(2160.905392072369 146.7790662517761) rotate(0 -148.624767602028 97.74884398489715)"><path d="M0.29 -0.71 C-49.39 32.02, -247.4 163.42, -297.1 196.21 M-1.01 1.52 C-50.85 33.92, -247.95 162.32, -297.54 194.38" stroke="#1e1e1e" stroke-width="1" fill="none"></path></g><g transform="translate(2160.905392072369 146.7790662517761) rotate(0 -148.624767602028 97.74884398489715)"><path d="M-280.68 172.02 C-285.52 179.92, -292.73 190.29, -298.58 195.97 M-279.45 170.23 C-286.45 178.66, -294.21 188.45, -298.22 193.62" stroke="#1e1e1e" stroke-width="1" fill="none"></path></g><g transform="translate(2160.905392072369 146.7790662517761) rotate(0 -148.624767602028 97.74884398489715)"><path d="M-269.5 189.23 C-278.6 190.56, -290.09 194.34, -298.58 195.97 M-268.27 187.44 C-279.38 189.38, -291.4 192.62, -298.22 193.62" stroke="#1e1e1e" stroke-width="1" fill="none"></path></g></g><mask></mask><g transform="translate(2120.716023060063 96.52670793730675) rotate(0 146.68193054199241 22.5)"><text x="0" y="0" font-family="Virgil, Segoe UI Emoji" font-size="36px" fill="#1e1e1e" text-anchor="start" style="white-space: pre;" direction="ltr" dominant-baseline="text-before-edge">public prices API</text></g><g transform="translate(1300.5446251335472 486.063929404587) rotate(0 166.8959503173828 67.5)"><text x="0" y="0" font-family="Virgil, Segoe UI Emoji" font-size="36px" fill="#1e1e1e" text-anchor="start" style="white-space: pre;" direction="ltr" dominant-baseline="text-before-edge">User/token routes</text><text x="0" y="45" font-family="Virgil, Segoe UI Emoji" font-size="36px" fill="#1e1e1e" text-anchor="start" style="white-space: pre;" direction="ltr" dominant-baseline="text-before-edge">Data routes</text><text x="0" y="90" font-family="Virgil, Segoe UI Emoji" font-size="36px" fill="#1e1e1e" text-anchor="start" style="white-space: pre;" direction="ltr" dominant-baseline="text-before-edge">API request route</text></g><g stroke-linecap="round"><g transform="translate(2358.285841494946 580.7359601926958) rotate(0 76.6587806618104 -63.18517943052933)"><path d="M1.16 -0.66 C26.76 -21.87, 127.73 -105.34, 153.01 -126.42 M0.31 1.6 C25.79 -19.98, 126.72 -106.16, 151.99 -127.97" stroke="#1e1e1e" stroke-width="1" fill="none"></path></g><g transform="translate(2358.285841494946 580.7359601926958) rotate(0 76.6587806618104 -63.18517943052933)"><path d="M136.17 -102.04 C142.59 -109.02, 145.11 -114.6, 153.59 -127.66 M137.4 -102.72 C141.41 -111.5, 146.54 -120.72, 151.69 -127.74" stroke="#1e1e1e" stroke-width="1" fill="none"></path></g><g transform="translate(2358.285841494946 580.7359601926958) rotate(0 76.6587806618104 -63.18517943052933)"><path d="M122.81 -117.62 C132.69 -120.82, 138.56 -122.49, 153.59 -127.66 M124.04 -118.29 C132.69 -121.63, 142.42 -125.49, 151.69 -127.74" stroke="#1e1e1e" stroke-width="1" fill="none"></path></g></g><mask></mask><g stroke-linecap="round" transform="translate(2524.022639775717 319.13048348032345) rotate(0 264.35178602049336 118.41488338441576)"><path d="M32 0 M32 0 C200.73 2.18, 367.63 2.51, 496.7 0 M32 0 C152.06 1.53, 272.65 2.09, 496.7 0 M496.7 0 C517.76 0.56, 526.71 10.56, 528.7 32 M496.7 0 C519.17 -0.22, 529.25 8.64, 528.7 32 M528.7 32 C531.26 84.1, 529.77 139.19, 528.7 204.83 M528.7 32 C530.51 91.49, 529.63 151.61, 528.7 204.83 M528.7 204.83 C529.73 227, 520.02 237.08, 496.7 236.83 M528.7 204.83 C528.12 224.4, 519.24 235.84, 496.7 236.83 M496.7 236.83 C327.65 236.3, 157.28 237.51, 32 236.83 M496.7 236.83 C381.92 238.57, 266.94 238.89, 32 236.83 M32 236.83 C9.71 236.92, -1.84 224.8, 0 204.83 M32 236.83 C11.33 235.03, 1.37 227.44, 0 204.83 M0 204.83 C-1.47 141.75, -0.39 79.86, 0 32 M0 204.83 C1.19 160.96, 0.38 117.74, 0 32 M0 32 C1.45 9, 10.84 -0.55, 32 0 M0 32 C1.25 9.83, 8.62 1.89, 32 0" stroke="#1e1e1e" stroke-width="1" fill="none"></path></g><g transform="translate(2685.358091281635 420.63725769940805) rotate(0 111.32996368408203 22.5)"><text x="0" y="0" font-family="Virgil, Segoe UI Emoji" font-size="36px" fill="#1e1e1e" text-anchor="start" style="white-space: pre;" direction="ltr" dominant-baseline="text-before-edge">User Schema</text></g><g stroke-linecap="round"><g transform="translate(2360.379394222189 618.4758178615334) rotate(0 68.3489046715531 52.306910047956876)"><path d="M-0.39 1.04 C22.66 18.32, 114.2 85.57, 137.09 102.64 M1.61 0.54 C24.66 18.1, 114.04 87.26, 136.51 104.08" stroke="#1e1e1e" stroke-width="1" fill="none"></path></g><g transform="translate(2360.379394222189 618.4758178615334) rotate(0 68.3489046715531 52.306910047956876)"><path d="M109.6 96.3 C113.26 97.91, 120.38 99.64, 136.12 102.52 M107.02 95.42 C116.37 97.45, 125.95 100.4, 136.06 103.25" stroke="#1e1e1e" stroke-width="1" fill="none"></path></g><g transform="translate(2360.379394222189 618.4758178615334) rotate(0 68.3489046715531 52.306910047956876)"><path d="M122.04 79.99 C123.04 84.85, 127.65 89.88, 136.12 102.52 M119.46 79.1 C125.12 86.01, 130.95 93.87, 136.06 103.25" stroke="#1e1e1e" stroke-width="1" fill="none"></path></g></g><mask></mask><g stroke-linecap="round" transform="translate(2507.8022985836733 624.6023996892854) rotate(0 281.71586270262696 122.3435797404075)"><path d="M32 0 M32 0 C192.97 -1.37, 353.94 -0.55, 531.43 0 M32 0 C200.37 1.15, 368.37 0.73, 531.43 0 M531.43 0 C552.24 0.13, 561.48 8.72, 563.43 32 M531.43 0 C552.91 -0.89, 563.17 10.64, 563.43 32 M563.43 32 C564.29 85.43, 563.18 135.88, 563.43 212.69 M563.43 32 C564.41 88.62, 563.95 143.98, 563.43 212.69 M563.43 212.69 C565.4 233.51, 553.22 243.6, 531.43 244.69 M563.43 212.69 C563.5 235.1, 551.31 243.94, 531.43 244.69 M531.43 244.69 C421.57 242.69, 311.6 242.56, 32 244.69 M531.43 244.69 C424.25 243.34, 317.94 242.92, 32 244.69 M32 244.69 C10.58 243.15, -1.29 235.17, 0 212.69 M32 244.69 C12.82 243.84, -1.14 234.41, 0 212.69 M0 212.69 C-0.42 169.02, -0.84 123.86, 0 32 M0 212.69 C0.03 155.03, 0.39 99.08, 0 32 M0 32 C-1.71 10.32, 8.68 1.5, 32 0 M0 32 C0.27 10.51, 12.91 0.27, 32 0" stroke="#1e1e1e" stroke-width="1" fill="none"></path></g><g transform="translate(3066.6395359938615 826.7313822068079) rotate(0 0 0.5793664163303447)" stroke="none"><path fill="#1e1e1e" d="M 2.12,-0.66 Q 2.12,-0.66 2.15,-0.13 2.18,0.40 1.96,0.88 1.74,1.36 1.32,1.69 0.91,2.02 0.38,2.12 -0.13,2.21 -0.64,2.05 -1.14,1.90 -1.52,1.52 -1.90,1.14 -2.05,0.64 -2.21,0.13 -2.12,-0.38 -2.02,-0.91 -1.69,-1.32 -1.36,-1.74 -0.88,-1.96 -0.39,-2.18 0.13,-2.15 0.66,-2.11 1.11,-1.84 1.57,-1.56 1.84,-1.11 L 2.12,-0.66 Z"></path></g><g transform="translate(3066.6395359938615 827.8901150394686) rotate(0 0.00005000000010113581 0.00004999999998744897)" stroke="none"><path fill="#1e1e1e" d="M 1.57,-1.57 Q 1.57,-1.57 1.77,-1.27 1.98,-0.98 2.09,-0.64 2.20,-0.29 2.19,0.05 2.18,0.41 2.05,0.75 1.93,1.09 1.70,1.37 1.48,1.65 1.18,1.84 0.87,2.04 0.52,2.12 0.18,2.21 -0.17,2.18 -0.53,2.15 -0.86,2.01 -1.19,1.87 -1.46,1.63 -1.73,1.39 -1.90,1.07 -2.08,0.76 -2.15,0.41 -2.21,0.05 -2.17,-0.29 -2.12,-0.65 -1.96,-0.97 -1.80,-1.29 -1.54,-1.54 -1.29,-1.80 -0.97,-1.96 -0.65,-2.12 -0.29,-2.17 0.06,-2.21 0.41,-2.15 0.76,-2.08 1.07,-1.90 1.39,-1.73 1.63,-1.46 1.87,-1.19 2.01,-0.86 2.15,-0.53 2.18,-0.17 2.21,0.18 2.12,0.52 2.03,0.87 1.84,1.18 1.65,1.48 1.37,1.70 1.09,1.93 0.75,2.05 0.41,2.18 0.05,2.19 -0.30,2.20 -0.64,2.09 -0.98,1.98 -1.27,1.77 -1.57,1.56 -1.57,1.57 -1.57,1.57 -1.73,1.35 -1.90,1.14 -2.01,0.90 -2.12,0.66 -2.16,0.39 -2.21,0.13 -2.20,-0.13 -2.18,-0.40 -2.10,-0.65 -2.02,-0.91 -1.88,-1.14 -1.74,-1.36 -1.55,-1.55 -1.36,-1.74 -1.14,-1.88 -0.91,-2.02 -0.65,-2.10 -0.40,-2.18 -0.13,-2.20 0.13,-2.21 0.39,-2.16 0.66,-2.12 0.90,-2.01 1.14,-1.90 1.35,-1.73 1.57,-1.57 1.57,-1.57 L 1.57,-1.57 Z"></path></g><g transform="translate(2627.3017933910323 744.0339341213628) rotate(0 145.45794677734375 22.5)"><text x="0" y="0" font-family="Virgil, Segoe UI Emoji" font-size="36px" fill="#1e1e1e" text-anchor="start" style="white-space: pre;" direction="ltr" dominant-baseline="text-before-edge">Projects Schema</text></g></svg>
